<?xml version="1.0" encoding="UTF-8"?>
<svg id="a" data-name="图层 1" xmlns="http://www.w3.org/2000/svg" width="100mm" height="100mm" viewBox="0 0 283.46 283.46">
  <g id="b" data-name="&amp;lt;径向重复&amp;gt;">
    <path d="M122.66,160.81c-.65-.65-.59-1.73.14-2.3,1.44-1.13,2.89-2.26,4.33-3.38,1.59-1.25,3.19-2.49,4.78-3.74.05-.04.11-.03.16,0,.04.04.05.1,0,.16l-7.12,9.11c-.57.73-1.65.79-2.3.14Z" fill="#f08126"/>
  </g>
  <g id="c" data-name="&amp;lt;径向重复&amp;gt;">
    <path d="M117.69,153.98c-.42-.82-.02-1.83.84-2.14,1.72-.63,3.44-1.25,5.16-1.88,1.9-.69,3.8-1.38,5.7-2.08.06-.02.12,0,.15.06.02.05.02.11-.04.15l-9.59,6.47c-.77.52-1.81.25-2.23-.58Z" fill="#f08126"/>
  </g>
  <g id="d" data-name="&amp;lt;径向重复&amp;gt;">
    <path d="M115.09,145.95c-.14-.91.54-1.74,1.46-1.78,1.83-.06,3.66-.13,5.49-.19,2.02-.07,4.04-.14,6.06-.21.06,0,.11.04.12.1,0,.05-.02.11-.08.13l-11.12,3.19c-.89.25-1.8-.33-1.94-1.24Z" fill="#f08126"/>
  </g>
  <g id="e" data-name="&amp;lt;径向重复&amp;gt;">
    <path d="M115.09,137.51c.14-.91,1.05-1.49,1.94-1.24,1.76.5,3.52,1.01,5.28,1.51,1.94.56,3.89,1.11,5.83,1.67.06.02.09.07.08.13,0,.05-.05.1-.12.1l-11.56-.4c-.92-.03-1.61-.86-1.46-1.78Z" fill="#f08126"/>
  </g>
  <g id="f" data-name="&amp;lt;径向重复&amp;gt;">
    <path d="M117.7,129.49c.42-.82,1.46-1.09,2.23-.58,1.52,1.02,3.04,2.05,4.56,3.07,1.68,1.13,3.35,2.26,5.03,3.39.05.03.07.1.04.15-.02.05-.08.08-.15.06l-10.87-3.96c-.87-.32-1.26-1.32-.84-2.14Z" fill="#f08126"/>
  </g>
  <g id="g" data-name="&amp;lt;径向重复&amp;gt;">
    <path d="M122.66,122.66c.65-.65,1.73-.59,2.3.14,1.13,1.44,2.26,2.89,3.38,4.33,1.25,1.59,2.49,3.19,3.74,4.78.04.05.03.11,0,.16-.04.04-.1.05-.16,0l-9.11-7.12c-.73-.57-.79-1.65-.14-2.3Z" fill="#f08126"/>
  </g>
  <g id="h" data-name="&amp;lt;径向重复&amp;gt;">
    <path d="M129.49,117.69c.82-.42,1.83-.02,2.14.84.63,1.72,1.25,3.44,1.88,5.16.69,1.9,1.38,3.8,2.08,5.7.02.06,0,.12-.06.15-.05.02-.11.02-.15-.04l-6.47-9.59c-.52-.77-.25-1.81.58-2.23Z" fill="#f08126"/>
  </g>
  <g id="i" data-name="&amp;lt;径向重复&amp;gt;">
    <path d="M137.51,115.09c.91-.14,1.74.54,1.78,1.46.06,1.83.13,3.66.19,5.49.07,2.02.14,4.04.21,6.06,0,.06-.04.11-.1.12-.05,0-.11-.02-.13-.08l-3.19-11.12c-.25-.89.33-1.8,1.24-1.94Z" fill="#f08126"/>
  </g>
  <g id="j" data-name="&amp;lt;径向重复&amp;gt;">
    <path d="M145.95,115.09c.91.14,1.49,1.05,1.24,1.94-.5,1.76-1.01,3.52-1.51,5.28-.56,1.94-1.11,3.89-1.67,5.83-.02.06-.07.09-.13.08-.05,0-.1-.05-.1-.12l.4-11.56c.03-.92.86-1.61,1.78-1.46Z" fill="#f08126"/>
  </g>
  <g id="k" data-name="&amp;lt;径向重复&amp;gt;">
    <path d="M153.98,117.7c.82.42,1.09,1.46.58,2.23-1.02,1.52-2.05,3.04-3.07,4.56-1.13,1.68-2.26,3.35-3.39,5.03-.03.05-.1.07-.15.04-.05-.02-.08-.08-.06-.15l3.96-10.87c.32-.87,1.32-1.26,2.14-.84Z" fill="#f08126"/>
  </g>
  <g id="l" data-name="&amp;lt;径向重复&amp;gt;">
    <path d="M160.81,122.66c.65.65.59,1.73-.14,2.3-1.44,1.13-2.89,2.26-4.33,3.38-1.59,1.25-3.19,2.49-4.78,3.74-.05.04-.11.03-.16,0-.04-.04-.05-.1,0-.16l7.12-9.11c.57-.73,1.65-.79,2.3-.14Z" fill="#f08126"/>
  </g>
  <g id="m" data-name="&amp;lt;径向重复&amp;gt;">
    <path d="M165.77,129.49c.42.82.02,1.83-.84,2.14-1.72.63-3.44,1.25-5.16,1.88-1.9.69-3.8,1.38-5.7,2.08-.06.02-.12,0-.15-.06-.02-.05-.02-.11.04-.15l9.59-6.47c.77-.52,1.81-.25,2.23.58Z" fill="#f08126"/>
  </g>
  <g id="n" data-name="&amp;lt;径向重复&amp;gt;">
    <path d="M168.38,137.51c.14.91-.54,1.74-1.46,1.78-1.83.06-3.66.13-5.49.19-2.02.07-4.04.14-6.06.21-.06,0-.11-.04-.12-.1,0-.05.02-.11.08-.13l11.12-3.19c.89-.25,1.8.33,1.94,1.24Z" fill="#f08126"/>
  </g>
  <g id="o" data-name="&amp;lt;径向重复&amp;gt;">
    <path d="M168.38,145.95c-.14.91-1.05,1.49-1.94,1.24-1.76-.5-3.52-1.01-5.28-1.51-1.94-.56-3.89-1.11-5.83-1.67-.06-.02-.09-.07-.08-.13,0-.05.05-.1.12-.1l11.56.4c.92.03,1.61.86,1.46,1.78Z" fill="#f08126"/>
  </g>
  <g id="p" data-name="&amp;lt;径向重复&amp;gt;">
    <path d="M165.77,153.98c-.42.82-1.46,1.09-2.23.58-1.52-1.02-3.04-2.05-4.56-3.07-1.68-1.13-3.35-2.26-5.03-3.39-.05-.03-.07-.1-.04-.15.02-.05.08-.08.15-.06l10.87,3.96c.87.32,1.26,1.32.84,2.14Z" fill="#f08126"/>
  </g>
  <g id="q" data-name="&amp;lt;径向重复&amp;gt;">
    <path d="M160.81,160.81c-.65.65-1.73.59-2.3-.14-1.13-1.44-2.26-2.89-3.38-4.33-1.25-1.59-2.49-3.19-3.74-4.78-.04-.05-.03-.11,0-.16.04-.04.1-.05.16,0l9.11,7.12c.73.57.79,1.65.14,2.3Z" fill="#f08126"/>
  </g>
  <g id="r" data-name="&amp;lt;径向重复&amp;gt;">
    <path d="M153.98,165.77c-.82.42-1.83.02-2.14-.84-.63-1.72-1.25-3.44-1.88-5.16-.69-1.9-1.38-3.8-2.08-5.7-.02-.06,0-.12.06-.15.05-.02.11-.02.15.04l6.47,9.59c.52.77.25,1.81-.58,2.23Z" fill="#f08126"/>
  </g>
  <g id="s" data-name="&amp;lt;径向重复&amp;gt;">
    <path d="M145.95,168.38c-.91.14-1.74-.54-1.78-1.46-.06-1.83-.13-3.66-.19-5.49-.07-2.02-.14-4.04-.21-6.06,0-.06.04-.11.1-.12.05,0,.11.02.13.08l3.19,11.12c.25.89-.33,1.8-1.24,1.94Z" fill="#f08126"/>
  </g>
  <g id="t" data-name="&amp;lt;径向重复&amp;gt;">
    <path d="M137.51,168.38c-.91-.14-1.49-1.05-1.24-1.94.5-1.76,1.01-3.52,1.51-5.28.56-1.94,1.11-3.89,1.67-5.83.02-.06.07-.09.13-.08.05,0,.1.05.1.12l-.4,11.56c-.03.92-.86,1.61-1.78,1.46Z" fill="#f08126"/>
  </g>
  <g id="u" data-name="&amp;lt;径向重复&amp;gt;">
    <path d="M129.49,165.77c-.82-.42-1.09-1.46-.58-2.23,1.02-1.52,2.05-3.04,3.07-4.56,1.13-1.68,2.26-3.35,3.39-5.03.03-.05.1-.07.15-.04.05.02.08.08.06.15l-3.96,10.87c-.32.87-1.32,1.26-2.14.84Z" fill="#f08126"/>
  </g>
</svg>