<?xml version="1.0" encoding="UTF-8"?>
<svg id="a" data-name="图层 1" xmlns="http://www.w3.org/2000/svg" width="100mm" height="100mm" viewBox="0 0 283.46 283.46">
  <g id="b" data-name="&amp;lt;径向重复&amp;gt;">
    <path d="M85.35,198.12c-1.93-1.93-1.74-5.11.42-6.79,4.27-3.33,8.53-6.67,12.8-10,4.71-3.68,9.42-7.36,14.13-11.04.14-.11.34-.1.46.03.11.11.16.3.03.46l-21.04,26.93c-1.68,2.15-4.86,2.35-6.79.42Z" fill="#f8cb78"/>
  </g>
  <g id="c" data-name="&amp;lt;径向重复&amp;gt;">
    <path d="M70.68,177.93c-1.24-2.43-.07-5.4,2.49-6.33,5.09-1.85,10.17-3.7,15.26-5.56,5.62-2.05,11.24-4.09,16.85-6.14.17-.06.35.01.43.17.07.14.05.33-.12.45l-28.34,19.11c-2.26,1.53-5.35.73-6.59-1.7Z" fill="#f8cb78"/>
  </g>
  <g id="d" data-name="&amp;lt;径向重复&amp;gt;">
    <path d="M62.98,154.2c-.43-2.7,1.6-5.16,4.33-5.25,5.41-.19,10.82-.38,16.23-.57,5.98-.21,11.95-.42,17.93-.63.18,0,.33.12.36.29.03.16-.05.33-.25.39l-32.85,9.42c-2.62.75-5.31-.96-5.74-3.66Z" fill="#f8cb78"/>
  </g>
  <g id="e" data-name="&amp;lt;径向重复&amp;gt;">
    <path d="M62.98,129.26c.43-2.7,3.12-4.41,5.74-3.66,5.2,1.49,10.41,2.98,15.61,4.48,5.75,1.65,11.49,3.3,17.24,4.94.17.05.28.22.25.39-.03.16-.15.3-.36.29l-34.16-1.19c-2.73-.1-4.76-2.56-4.33-5.25Z" fill="#f8cb78"/>
  </g>
  <g id="f" data-name="&amp;lt;径向重复&amp;gt;">
    <path d="M70.69,105.53c1.24-2.43,4.33-3.23,6.59-1.7,4.49,3.03,8.98,6.05,13.46,9.08,4.96,3.34,9.91,6.69,14.87,10.03.15.1.2.29.12.45-.07.14-.24.24-.43.17l-32.12-11.69c-2.56-.93-3.73-3.9-2.49-6.33Z" fill="#f8cb78"/>
  </g>
  <g id="g" data-name="&amp;lt;径向重复&amp;gt;">
    <path d="M85.35,85.35c1.93-1.93,5.11-1.74,6.79.42,3.33,4.27,6.67,8.53,10,12.8,3.68,4.71,7.36,9.42,11.04,14.13.11.14.1.34-.03.46-.11.11-.3.16-.46.03l-26.93-21.04c-2.15-1.68-2.35-4.86-.42-6.79Z" fill="#f8cb78"/>
  </g>
  <g id="h" data-name="&amp;lt;径向重复&amp;gt;">
    <path d="M105.53,70.68c2.43-1.24,5.4-.07,6.33,2.49,1.85,5.09,3.7,10.17,5.56,15.26,2.05,5.62,4.09,11.24,6.14,16.85.06.17-.01.35-.17.43-.14.07-.33.05-.45-.12l-19.11-28.34c-1.53-2.26-.73-5.35,1.7-6.59Z" fill="#f8cb78"/>
  </g>
  <g id="i" data-name="&amp;lt;径向重复&amp;gt;">
    <path d="M129.26,62.98c2.7-.43,5.16,1.6,5.25,4.33.19,5.41.38,10.82.57,16.23.21,5.98.42,11.95.63,17.93,0,.18-.12.33-.29.36-.16.03-.33-.05-.39-.25l-9.42-32.85c-.75-2.62.96-5.31,3.66-5.74Z" fill="#f8cb78"/>
  </g>
  <g id="j" data-name="&amp;lt;径向重复&amp;gt;">
    <path d="M154.21,62.97c2.7.43,4.41,3.12,3.66,5.74-1.49,5.2-2.98,10.41-4.48,15.61-1.65,5.75-3.3,11.49-4.94,17.24-.05.17-.22.28-.39.25-.16-.03-.3-.15-.29-.36l1.19-34.16c.1-2.73,2.56-4.76,5.25-4.33Z" fill="#f8cb78"/>
  </g>
  <g id="k" data-name="&amp;lt;径向重复&amp;gt;">
    <path d="M177.93,70.68c2.43,1.24,3.23,4.33,1.7,6.59-3.03,4.49-6.05,8.98-9.08,13.46-3.34,4.96-6.69,9.91-10.03,14.87-.1.15-.29.2-.45.12-.14-.07-.24-.24-.17-.43l11.69-32.12c.93-2.56,3.9-3.73,6.33-2.49Z" fill="#f8cb78"/>
  </g>
  <g id="l" data-name="&amp;lt;径向重复&amp;gt;">
    <path d="M198.12,85.35c1.93,1.93,1.74,5.11-.42,6.79-4.27,3.33-8.53,6.67-12.8,10-4.71,3.68-9.42,7.36-14.13,11.04-.14.11-.34.1-.46-.03-.11-.11-.16-.3-.03-.46l21.04-26.93c1.68-2.15,4.86-2.35,6.79-.42Z" fill="#f8cb78"/>
  </g>
  <g id="m" data-name="&amp;lt;径向重复&amp;gt;">
    <path d="M212.78,105.53c1.24,2.43.07,5.4-2.49,6.33-5.09,1.85-10.17,3.7-15.26,5.56-5.62,2.05-11.24,4.09-16.85,6.14-.17.06-.35-.01-.43-.17-.07-.14-.05-.33.12-.45l28.34-19.11c2.26-1.53,5.35-.73,6.59,1.7Z" fill="#f8cb78"/>
  </g>
  <g id="n" data-name="&amp;lt;径向重复&amp;gt;">
    <path d="M220.49,129.26c.43,2.7-1.6,5.16-4.33,5.25-5.41.19-10.82.38-16.23.57-5.98.21-11.95.42-17.93.63-.18,0-.33-.12-.36-.29-.03-.16.05-.33.25-.39l32.85-9.42c2.62-.75,5.31.96,5.74,3.66Z" fill="#f8cb78"/>
  </g>
  <g id="o" data-name="&amp;lt;径向重复&amp;gt;">
    <path d="M220.49,154.2c-.43,2.7-3.12,4.41-5.74,3.66-5.2-1.49-10.41-2.98-15.61-4.48-5.75-1.65-11.49-3.3-17.24-4.94-.17-.05-.28-.22-.25-.39.03-.16.15-.3.36-.29l34.16,1.19c2.73.1,4.76,2.56,4.33,5.25Z" fill="#f8cb78"/>
  </g>
  <g id="p" data-name="&amp;lt;径向重复&amp;gt;">
    <path d="M212.78,177.93c-1.24,2.43-4.33,3.23-6.59,1.7-4.49-3.03-8.98-6.05-13.46-9.08-4.96-3.34-9.91-6.69-14.87-10.03-.15-.1-.2-.29-.12-.45.07-.14.24-.24.43-.17l32.12,11.69c2.56.93,3.73,3.9,2.49,6.33Z" fill="#f8cb78"/>
  </g>
  <g id="q" data-name="&amp;lt;径向重复&amp;gt;">
    <path d="M198.12,198.12c-1.93,1.93-5.11,1.74-6.79-.42-3.33-4.27-6.67-8.53-10-12.8-3.68-4.71-7.36-9.42-11.04-14.13-.11-.14-.1-.34.03-.46.11-.11.3-.16.46-.03l26.93,21.04c2.15,1.68,2.35,4.86.42,6.79Z" fill="#f8cb78"/>
  </g>
  <g id="r" data-name="&amp;lt;径向重复&amp;gt;">
    <path d="M177.93,212.78c-2.43,1.24-5.4.07-6.33-2.49-1.85-5.09-3.7-10.17-5.56-15.26-2.05-5.62-4.09-11.24-6.14-16.85-.06-.17.01-.35.17-.43.14-.07.33-.05.45.12l19.11,28.34c1.53,2.26.73,5.35-1.7,6.59Z" fill="#f8cb78"/>
  </g>
  <g id="s" data-name="&amp;lt;径向重复&amp;gt;">
    <path d="M154.2,220.49c-2.7.43-5.16-1.6-5.25-4.33-.19-5.41-.38-10.82-.57-16.23-.21-5.98-.42-11.95-.63-17.93,0-.18.12-.33.29-.36.16-.03.33.05.39.25l9.42,32.85c.75,2.62-.96,5.31-3.66,5.74Z" fill="#f8cb78"/>
  </g>
  <g id="t" data-name="&amp;lt;径向重复&amp;gt;">
    <path d="M129.26,220.49c-2.7-.43-4.41-3.12-3.66-5.74,1.49-5.2,2.98-10.41,4.48-15.61,1.65-5.75,3.3-11.49,4.94-17.24.05-.17.22-.28.39-.25.16.03.3.15.29.36l-1.19,34.16c-.1,2.73-2.56,4.76-5.25,4.33Z" fill="#f8cb78"/>
  </g>
  <g id="u" data-name="&amp;lt;径向重复&amp;gt;">
    <path d="M105.53,212.78c-2.43-1.24-3.23-4.33-1.7-6.59,3.03-4.49,6.05-8.98,9.08-13.46,3.34-4.96,6.69-9.91,10.03-14.87.1-.15.29-.2.45-.12.14.07.24.24.17.43l-11.69,32.12c-.93,2.56-3.9,3.73-6.33,2.49Z" fill="#f8cb78"/>
  </g>
</svg>