<?xml version="1.0" encoding="UTF-8"?>
<svg id="a" data-name="图层 1" xmlns="http://www.w3.org/2000/svg" width="100mm" height="100mm" viewBox="0 0 283.46 283.46">
  <g id="b" data-name="&amp;lt;径向重复&amp;gt;">
    <polygon points="139.11 252.28 141.73 175.51 144.35 252.28 139.11 252.28" fill="#ea572a"/>
  </g>
  <g id="c" data-name="&amp;lt;径向重复&amp;gt;">
    <polygon points="105.08 246.06 131.29 173.86 110.06 247.68 105.08 246.06" fill="#ea572a"/>
  </g>
  <g id="d" data-name="&amp;lt;径向重复&amp;gt;">
    <polygon points="74.63 229.63 121.88 169.06 78.87 232.71 74.63 229.63" fill="#ea572a"/>
  </g>
  <g id="e" data-name="&amp;lt;径向重复&amp;gt;">
    <polygon points="50.75 204.59 114.41 161.58 53.84 208.83 50.75 204.59" fill="#ea572a"/>
  </g>
  <g id="f" data-name="&amp;lt;径向重复&amp;gt;">
    <polygon points="35.78 173.4 109.61 152.17 37.4 178.39 35.78 173.4" fill="#ea572a"/>
  </g>
  <g id="g" data-name="&amp;lt;径向重复&amp;gt;">
    <polygon points="31.18 139.11 107.96 141.73 31.18 144.35 31.18 139.11" fill="#ea572a"/>
  </g>
  <g id="h" data-name="&amp;lt;径向重复&amp;gt;">
    <polygon points="37.4 105.08 109.61 131.29 35.78 110.06 37.4 105.08" fill="#ea572a"/>
  </g>
  <g id="i" data-name="&amp;lt;径向重复&amp;gt;">
    <polygon points="53.83 74.63 114.41 121.88 50.75 78.87 53.83 74.63" fill="#ea572a"/>
  </g>
  <g id="j" data-name="&amp;lt;径向重复&amp;gt;">
    <polygon points="78.87 50.75 121.88 114.41 74.63 53.84 78.87 50.75" fill="#ea572a"/>
  </g>
  <g id="k" data-name="&amp;lt;径向重复&amp;gt;">
    <polygon points="110.06 35.78 131.3 109.61 105.08 37.4 110.06 35.78" fill="#ea572a"/>
  </g>
  <g id="l" data-name="&amp;lt;径向重复&amp;gt;">
    <polygon points="144.35 31.18 141.73 107.96 139.11 31.18 144.35 31.18" fill="#ea572a"/>
  </g>
  <g id="m" data-name="&amp;lt;径向重复&amp;gt;">
    <polygon points="178.39 37.4 152.17 109.61 173.4 35.78 178.39 37.4" fill="#ea572a"/>
  </g>
  <g id="n" data-name="&amp;lt;径向重复&amp;gt;">
    <polygon points="208.83 53.83 161.59 114.41 204.59 50.75 208.83 53.83" fill="#ea572a"/>
  </g>
  <g id="o" data-name="&amp;lt;径向重复&amp;gt;">
    <polygon points="232.71 78.87 169.06 121.88 229.63 74.63 232.71 78.87" fill="#ea572a"/>
  </g>
  <g id="p" data-name="&amp;lt;径向重复&amp;gt;">
    <polygon points="247.68 110.06 173.85 131.3 246.06 105.08 247.68 110.06" fill="#ea572a"/>
  </g>
  <g id="q" data-name="&amp;lt;径向重复&amp;gt;">
    <polygon points="252.28 144.35 175.51 141.73 252.28 139.11 252.28 144.35" fill="#ea572a"/>
  </g>
  <g id="r" data-name="&amp;lt;径向重复&amp;gt;">
    <polygon points="246.06 178.39 173.86 152.17 247.68 173.4 246.06 178.39" fill="#ea572a"/>
  </g>
  <g id="s" data-name="&amp;lt;径向重复&amp;gt;">
    <polygon points="229.63 208.83 169.06 161.59 232.71 204.59 229.63 208.83" fill="#ea572a"/>
  </g>
  <g id="t" data-name="&amp;lt;径向重复&amp;gt;">
    <polygon points="204.59 232.71 161.58 169.06 208.83 229.63 204.59 232.71" fill="#ea572a"/>
  </g>
  <g id="u" data-name="&amp;lt;径向重复&amp;gt;">
    <polygon points="173.4 247.68 152.17 173.86 178.39 246.06 173.4 247.68" fill="#ea572a"/>
  </g>
</svg>