<?xml version="1.0" encoding="UTF-8"?>
<svg id="a" data-name="图层 1" xmlns="http://www.w3.org/2000/svg" width="100mm" height="100mm" viewBox="0 0 283.46 283.46">
  <g id="b" data-name="&amp;lt;径向重复&amp;gt;">
    <path d="M141.73,164.86c-1.27,0-2.25-1.11-2.1-2.37.31-2.5.61-5,.92-7.49.34-2.76.68-5.52,1.02-8.28,0-.08.08-.14.16-.14.07,0,.15.05.16.14l1.94,15.77c.15,1.26-.83,2.37-2.1,2.37Z" fill="#f08126"/>
  </g>
  <g id="c" data-name="&amp;lt;径向重复&amp;gt;">
    <path d="M133.31,163.28c-1.18-.46-1.7-1.85-1.1-2.97,1.19-2.22,2.38-4.44,3.56-6.66,1.31-2.45,2.62-4.9,3.94-7.35.04-.07.13-.1.2-.07.07.03.12.1.1.19l-3.89,15.4c-.31,1.23-1.63,1.91-2.81,1.45Z" fill="#f08126"/>
  </g>
  <g id="d" data-name="&amp;lt;径向重复&amp;gt;">
    <path d="M126.03,158.77c-.94-.85-.92-2.34.05-3.16,1.91-1.64,3.82-3.28,5.73-4.92,2.11-1.81,4.22-3.62,6.33-5.43.06-.05.15-.05.22,0,.06.05.08.14.02.21l-9.19,12.96c-.73,1.03-2.21,1.19-3.15.34Z" fill="#f08126"/>
  </g>
  <g id="e" data-name="&amp;lt;径向重复&amp;gt;">
    <path d="M120.87,151.94c-.57-1.14,0-2.51,1.19-2.93,2.37-.84,4.75-1.68,7.12-2.52,2.62-.93,5.24-1.85,7.86-2.78.08-.03.16,0,.2.08.03.07.02.16-.06.21l-13.25,8.76c-1.06.7-2.49.32-3.06-.82Z" fill="#f08126"/>
  </g>
  <g id="f" data-name="&amp;lt;径向重复&amp;gt;">
    <path d="M118.53,143.7c-.12-1.26.9-2.34,2.17-2.31,2.52.07,5.03.15,7.55.22,2.78.08,5.56.17,8.34.25.08,0,.15.07.16.15,0,.07-.03.15-.13.17l-15.52,3.38c-1.24.27-2.44-.61-2.55-1.87Z" fill="#f08126"/>
  </g>
  <g id="g" data-name="&amp;lt;径向重复&amp;gt;">
    <path d="M119.32,135.17c.35-1.22,1.68-1.86,2.85-1.37,2.32.98,4.64,1.96,6.96,2.94,2.56,1.08,5.12,2.16,7.68,3.24.08.03.12.12.09.19-.02.07-.09.13-.18.12l-15.7-2.45c-1.25-.2-2.05-1.44-1.71-2.67Z" fill="#f08126"/>
  </g>
  <g id="h" data-name="&amp;lt;径向重复&amp;gt;">
    <path d="M123.13,127.51c.76-1.01,2.24-1.13,3.15-.25,1.81,1.75,3.62,3.5,5.43,5.25,2,1.93,4,3.87,5.99,5.8.06.06.07.15.02.21-.05.06-.13.09-.21.04l-13.75-7.96c-1.1-.64-1.39-2.09-.63-3.1Z" fill="#f08126"/>
  </g>
  <g id="i" data-name="&amp;lt;径向重复&amp;gt;">
    <path d="M129.46,121.74c1.08-.67,2.5-.24,3.03.91,1.05,2.29,2.11,4.57,3.16,6.86,1.16,2.52,2.33,5.05,3.49,7.57.03.07,0,.16-.06.21-.06.04-.15.04-.21-.04l-9.95-12.39c-.79-.99-.54-2.45.54-3.12Z" fill="#f08126"/>
  </g>
  <g id="j" data-name="&amp;lt;径向重复&amp;gt;">
    <path d="M137.45,118.64c1.25-.23,2.42.68,2.5,1.94.16,2.51.32,5.02.47,7.54.17,2.77.35,5.55.52,8.32,0,.08-.05.15-.13.17-.07.01-.16-.02-.18-.11l-4.8-15.15c-.38-1.21.38-2.48,1.63-2.71Z" fill="#f08126"/>
  </g>
  <g id="k" data-name="&amp;lt;径向重复&amp;gt;">
    <path d="M146.02,118.64c1.25.23,2.01,1.51,1.63,2.71-.76,2.4-1.52,4.8-2.28,7.2-.84,2.65-1.68,5.3-2.52,7.95-.02.08-.1.13-.18.11-.07-.01-.14-.07-.13-.17l1-15.86c.08-1.27,1.25-2.18,2.5-1.94Z" fill="#f08126"/>
  </g>
  <g id="l" data-name="&amp;lt;径向重复&amp;gt;">
    <path d="M154,121.74c1.08.67,1.33,2.13.54,3.12-1.58,1.96-3.15,3.92-4.73,5.89-1.74,2.17-3.48,4.33-5.22,6.5-.05.06-.14.08-.21.04-.06-.04-.1-.12-.06-.21l6.66-14.43c.53-1.15,1.95-1.58,3.03-.91Z" fill="#f08126"/>
  </g>
  <g id="m" data-name="&amp;lt;径向重复&amp;gt;">
    <path d="M160.33,127.51c.76,1.01.47,2.47-.63,3.1-2.18,1.26-4.36,2.52-6.53,3.78-2.41,1.39-4.81,2.78-7.22,4.18-.07.04-.16.02-.21-.04-.05-.06-.05-.15.02-.21l11.42-11.05c.91-.88,2.39-.77,3.15.25Z" fill="#f08126"/>
  </g>
  <g id="n" data-name="&amp;lt;径向重复&amp;gt;">
    <path d="M164.15,135.17c.35,1.22-.45,2.47-1.71,2.67-2.49.39-4.97.78-7.46,1.17-2.75.43-5.49.86-8.24,1.29-.08.01-.16-.04-.18-.12-.02-.07,0-.16.09-.19l14.64-6.18c1.17-.49,2.51.15,2.85,1.37Z" fill="#f08126"/>
  </g>
  <g id="o" data-name="&amp;lt;径向重复&amp;gt;">
    <path d="M164.94,143.7c-.12,1.26-1.31,2.14-2.55,1.87-2.46-.54-4.92-1.07-7.38-1.61-2.72-.59-5.43-1.18-8.15-1.78-.08-.02-.13-.09-.13-.17,0-.07.06-.14.16-.15l15.88-.47c1.27-.04,2.28,1.04,2.17,2.31Z" fill="#f08126"/>
  </g>
  <g id="p" data-name="&amp;lt;径向重复&amp;gt;">
    <path d="M162.59,151.94c-.57,1.14-2,1.52-3.06.82-2.1-1.39-4.2-2.78-6.3-4.16-2.32-1.53-4.64-3.07-6.96-4.6-.07-.05-.09-.13-.06-.21.03-.07.11-.11.2-.08l14.98,5.3c1.2.42,1.75,1.8,1.19,2.93Z" fill="#f08126"/>
  </g>
  <g id="q" data-name="&amp;lt;径向重复&amp;gt;">
    <path d="M157.44,158.78c-.94.85-2.41.7-3.15-.34-1.46-2.05-2.91-4.11-4.37-6.16-1.61-2.27-3.22-4.53-4.83-6.8-.05-.07-.04-.16.02-.21.06-.05.14-.07.22,0l12.05,10.35c.96.83.98,2.31.05,3.16Z" fill="#f08126"/>
  </g>
  <g id="r" data-name="&amp;lt;径向重复&amp;gt;">
    <path d="M150.15,163.28c-1.18.46-2.5-.22-2.81-1.45-.62-2.44-1.23-4.88-1.85-7.32-.68-2.69-1.36-5.39-2.04-8.08-.02-.08.02-.16.1-.19.07-.03.16,0,.2.07l7.5,14.01c.6,1.12.08,2.51-1.1,2.97Z" fill="#f08126"/>
  </g>
</svg>