<?xml version="1.0" encoding="UTF-8"?>
<svg id="a" data-name="图层 1" xmlns="http://www.w3.org/2000/svg" width="100mm" height="100mm" viewBox="0 0 283.46 283.46">
  <g id="b" data-name="&amp;lt;径向重复&amp;gt;">
    <g id="c" data-name="&amp;lt;径向重复&amp;gt;">
      <path d="M72.34,211.88c-1.61-1.59.33-6.03,4.13-9.49,7.54-6.85,15.08-13.71,22.62-20.56,8.33-7.57,16.65-15.14,24.98-22.71.24-.22.51-.31.61-.21.09.09.05.33-.2.62l-42.69,48.12c-3.41,3.84-7.83,5.83-9.44,4.24Z" fill="#f8cb78"/>
    </g>
  </g>
  <g id="d" data-name="&amp;lt;径向重复&amp;gt;">
    <g id="e" data-name="&amp;lt;径向重复&amp;gt;">
      <path d="M51.54,181.91c-.93-2.06,2.48-5.51,7.28-7.36,9.51-3.67,19.01-7.34,28.52-11.01,10.5-4.05,21-8.1,31.49-12.15.31-.12.59-.11.65.02.05.12-.07.32-.41.5l-57.19,29.45c-4.57,2.35-9.41,2.61-10.33.55Z" fill="#f8cb78"/>
    </g>
  </g>
  <g id="f" data-name="&amp;lt;径向重复&amp;gt;">
    <g id="g" data-name="&amp;lt;径向重复&amp;gt;">
      <path d="M42.97,146.45c-.12-2.26,4.31-4.24,9.44-4.23,10.19.01,20.38.03,30.57.04,11.25.01,22.51.03,33.76.04.33,0,.59.11.6.26,0,.13-.18.28-.57.32l-63.96,6.8c-5.11.54-9.72-.97-9.83-3.22Z" fill="#f8cb78"/>
    </g>
  </g>
  <g id="h" data-name="&amp;lt;径向重复&amp;gt;">
    <g id="i" data-name="&amp;lt;径向重复&amp;gt;">
      <path d="M47.79,110.3c.7-2.15,5.55-2.4,10.34-.54,9.5,3.69,18.99,7.39,28.49,11.08,10.49,4.08,20.98,8.16,31.46,12.23.31.12.51.32.46.45-.04.13-.27.19-.64.09l-62.1-16.76c-4.96-1.34-8.71-4.41-8.01-6.56Z" fill="#f8cb78"/>
    </g>
  </g>
  <g id="j" data-name="&amp;lt;径向重复&amp;gt;">
    <g id="k" data-name="&amp;lt;径向重复&amp;gt;">
      <path d="M65.35,78.32c1.43-1.75,6.04-.23,9.83,3.23,7.52,6.87,15.04,13.75,22.56,20.62,8.31,7.59,16.61,15.18,24.92,22.77.24.22.36.48.27.59-.08.1-.32.08-.63-.15l-51.85-38.07c-4.14-3.04-6.53-7.26-5.1-9.01Z" fill="#f8cb78"/>
    </g>
  </g>
  <g id="l" data-name="&amp;lt;径向重复&amp;gt;">
    <g id="m" data-name="&amp;lt;径向重复&amp;gt;">
      <path d="M93.26,54.85c1.97-1.11,5.71,1.97,8,6.57,4.53,9.13,9.06,18.25,13.59,27.38,5,10.08,10.01,20.16,15.01,30.24.15.3.16.58.04.65-.12.07-.33-.04-.54-.36l-34.6-54.23c-2.76-4.33-3.46-9.13-1.5-10.24Z" fill="#f8cb78"/>
    </g>
  </g>
  <g id="n" data-name="&amp;lt;径向重复&amp;gt;">
    <g id="o" data-name="&amp;lt;径向重复&amp;gt;">
      <path d="M127.78,43.04c2.24-.33,4.62,3.9,5.09,9.01.93,10.15,1.85,20.29,2.78,30.44,1.02,11.21,2.05,22.41,3.07,33.62.03.33-.06.6-.2.62-.13.02-.29-.15-.37-.53l-12.67-63.06c-1.01-5.04.07-9.76,2.3-10.09Z" fill="#f8cb78"/>
    </g>
  </g>
  <g id="p" data-name="&amp;lt;径向重复&amp;gt;">
    <g id="q" data-name="&amp;lt;径向重复&amp;gt;">
      <path d="M164.23,44.5c2.2.5,2.9,5.3,1.49,10.24-2.8,9.8-5.6,19.59-8.4,29.39-3.09,10.82-6.19,21.64-9.28,32.46-.09.32-.27.54-.41.5-.13-.03-.22-.25-.15-.63l10.96-63.38c.88-5.06,3.59-9.08,5.79-8.58Z" fill="#f8cb78"/>
    </g>
  </g>
  <g id="r" data-name="&amp;lt;径向重复&amp;gt;">
    <g id="s" data-name="&amp;lt;径向重复&amp;gt;">
      <path d="M197.68,59.03c1.87,1.27.79,5.99-2.31,10.09-6.15,8.12-12.3,16.25-18.45,24.37-6.79,8.97-13.59,17.94-20.38,26.91-.2.26-.44.4-.56.32-.11-.07-.11-.31.09-.64l33.12-55.14c2.64-4.4,6.63-7.17,8.5-5.91Z" fill="#f8cb78"/>
    </g>
  </g>
  <g id="t" data-name="&amp;lt;径向重复&amp;gt;">
    <g id="u" data-name="&amp;lt;径向重复&amp;gt;">
      <path d="M223.63,84.67c1.29,1.86-1.43,5.87-5.8,8.57-8.67,5.35-17.34,10.71-26.01,16.06-9.57,5.91-19.15,11.82-28.72,17.74-.28.17-.56.22-.64.1-.08-.11,0-.33.31-.57l50.8-39.46c4.06-3.15,8.77-4.29,10.06-2.44Z" fill="#f8cb78"/>
    </g>
  </g>
  <g id="v" data-name="&amp;lt;径向重复&amp;gt;">
    <g id="w" data-name="&amp;lt;径向重复&amp;gt;">
      <path d="M238.57,117.95c.53,2.2-3.45,4.96-8.51,5.9-10.02,1.86-20.04,3.72-30.05,5.58-11.06,2.05-22.13,4.11-33.19,6.16-.33.06-.6,0-.63-.14-.03-.13.13-.3.5-.42l61.63-18.44c4.92-1.47,9.73-.83,10.26,1.36Z" fill="#f8cb78"/>
    </g>
  </g>
  <g id="x" data-name="&amp;lt;径向重复&amp;gt;">
    <g id="y" data-name="&amp;lt;径向重复&amp;gt;">
      <path d="M240.48,154.37c-.3,2.24-5.01,3.38-10.06,2.43-10.01-1.88-20.03-3.77-30.04-5.65-11.06-2.08-22.12-4.16-33.18-6.25-.33-.06-.56-.22-.54-.36.02-.13.23-.24.61-.21l64.12,5.07c5.12.4,9.37,2.74,9.07,4.98Z" fill="#f8cb78"/>
    </g>
  </g>
  <g id="z" data-name="&amp;lt;径向重复&amp;gt;">
    <g id="aa" data-name="&amp;lt;径向重复&amp;gt;">
      <path d="M229.1,189.03c-1.09,1.98-5.89,1.34-10.26-1.37-8.66-5.37-17.31-10.75-25.97-16.12-9.56-5.94-19.12-11.87-28.68-17.81-.28-.17-.44-.4-.37-.53.06-.12.3-.14.65.03l57.96,27.89c4.63,2.23,7.75,5.94,6.66,7.92Z" fill="#f8cb78"/>
    </g>
  </g>
  <g id="ab" data-name="&amp;lt;径向重复&amp;gt;">
    <g id="ac" data-name="&amp;lt;径向重复&amp;gt;">
      <path d="M205.97,217.23c-1.73,1.45-5.98-.88-9.07-4.99-6.13-8.14-12.26-16.28-18.39-24.42-6.77-8.99-13.54-17.98-20.31-26.97-.2-.26-.27-.54-.15-.63.1-.09.33-.02.59.26l43.97,46.95c3.51,3.75,5.08,8.34,3.35,9.79Z" fill="#f8cb78"/>
    </g>
  </g>
  <g id="ad" data-name="&amp;lt;径向重复&amp;gt;">
    <g id="ae" data-name="&amp;lt;径向重复&amp;gt;">
      <path d="M174.21,235.18c-2.14.73-5.26-2.98-6.66-7.92-2.78-9.8-5.55-19.61-8.33-29.41-3.07-10.83-6.13-21.65-9.2-32.48-.09-.32-.05-.6.08-.64.13-.04.31.1.46.46l24.05,59.66c1.92,4.76,1.73,9.61-.41,10.34Z" fill="#f8cb78"/>
    </g>
  </g>
  <g id="af" data-name="&amp;lt;径向重复&amp;gt;">
    <g id="ag" data-name="&amp;lt;径向重复&amp;gt;">
      <path d="M138.12,240.44c-2.26-.09-3.82-4.68-3.34-9.79.95-10.14,1.91-20.29,2.86-30.43,1.05-11.2,2.11-22.41,3.16-33.61.03-.33.16-.58.31-.57.13,0,.26.2.26.59l.87,64.32c.07,5.14-1.86,9.59-4.12,9.49Z" fill="#f8cb78"/>
    </g>
  </g>
  <g id="ah" data-name="&amp;lt;径向重复&amp;gt;">
    <g id="ai" data-name="&amp;lt;径向重复&amp;gt;">
      <path d="M102.56,232.31c-2.07-.9-1.88-5.75.42-10.34,4.55-9.11,9.11-18.23,13.66-27.34,5.03-10.07,10.06-20.13,15.09-30.2.15-.3.36-.48.49-.42.12.05.17.28.03.65l-22.42,60.29c-1.79,4.81-5.2,8.27-7.27,7.37Z" fill="#f8cb78"/>
    </g>
  </g>
</svg>