<?xml version="1.0" encoding="UTF-8"?>
<svg id="a" data-name="图层 1" xmlns="http://www.w3.org/2000/svg" width="100mm" height="100mm" viewBox="0 0 283.46 283.46">
  <g id="b" data-name="&amp;lt;径向重复&amp;gt;">
    <g id="c" data-name="&amp;lt;径向重复&amp;gt;">
      <polygon points="225.54 69.62 160.64 122.81 213.83 57.92 225.54 69.62" fill="#ea572a"/>
    </g>
  </g>
  <g id="d" data-name="&amp;lt;径向重复&amp;gt;">
    <g id="e" data-name="&amp;lt;径向重复&amp;gt;">
      <polygon points="245.95 104.8 166.22 130.96 239.27 89.66 245.95 104.8" fill="#ea572a"/>
    </g>
  </g>
  <g id="f" data-name="&amp;lt;径向重复&amp;gt;">
    <g id="g" data-name="&amp;lt;径向重复&amp;gt;">
      <polygon points="252.28 144.98 168.49 140.57 251.52 128.45 252.28 144.98" fill="#ea572a"/>
    </g>
  </g>
  <g id="h" data-name="&amp;lt;径向重复&amp;gt;">
    <g id="i" data-name="&amp;lt;径向重复&amp;gt;">
      <polygon points="243.67 184.74 167.13 150.36 248.93 169.05 243.67 184.74" fill="#ea572a"/>
    </g>
  </g>
  <g id="j" data-name="&amp;lt;径向重复&amp;gt;">
    <g id="k" data-name="&amp;lt;径向重复&amp;gt;">
      <polygon points="221.28 218.7 162.32 158.99 231.85 205.96 221.28 218.7" fill="#ea572a"/>
    </g>
  </g>
  <g id="l" data-name="&amp;lt;径向重复&amp;gt;">
    <g id="m" data-name="&amp;lt;径向重复&amp;gt;">
      <polygon points="188.13 242.27 154.73 165.3 202.59 234.22 188.13 242.27" fill="#ea572a"/>
    </g>
  </g>
  <g id="n" data-name="&amp;lt;径向重复&amp;gt;">
    <g id="o" data-name="&amp;lt;径向重复&amp;gt;">
      <polygon points="148.7 252.28 145.36 168.44 165.09 250 148.7 252.28" fill="#ea572a"/>
    </g>
  </g>
  <g id="p" data-name="&amp;lt;径向重复&amp;gt;">
    <g id="q" data-name="&amp;lt;径向重复&amp;gt;">
      <polygon points="108.33 247.37 135.5 167.99 124.43 251.16 108.33 247.37" fill="#ea572a"/>
    </g>
  </g>
  <g id="r" data-name="&amp;lt;径向重复&amp;gt;">
    <g id="s" data-name="&amp;lt;径向重复&amp;gt;">
      <polygon points="72.44 228.21 126.46 164 86.1 237.56 72.44 228.21" fill="#ea572a"/>
    </g>
  </g>
  <g id="t" data-name="&amp;lt;径向重复&amp;gt;">
    <g id="u" data-name="&amp;lt;径向重复&amp;gt;">
      <polygon points="45.91 197.38 119.47 157.02 55.26 211.03 45.91 197.38" fill="#ea572a"/>
    </g>
  </g>
  <g id="v" data-name="&amp;lt;径向重复&amp;gt;">
    <g id="w" data-name="&amp;lt;径向重复&amp;gt;">
      <polygon points="32.31 159.05 115.48 147.98 36.1 175.16 32.31 159.05" fill="#ea572a"/>
    </g>
  </g>
  <g id="x" data-name="&amp;lt;径向重复&amp;gt;">
    <g id="y" data-name="&amp;lt;径向重复&amp;gt;">
      <polygon points="33.47 118.38 115.02 138.12 31.18 134.78 33.47 118.38" fill="#ea572a"/>
    </g>
  </g>
  <g id="z" data-name="&amp;lt;径向重复&amp;gt;">
    <g id="aa" data-name="&amp;lt;径向重复&amp;gt;">
      <polygon points="49.24 80.89 118.16 128.75 41.18 95.35 49.24 80.89" fill="#ea572a"/>
    </g>
  </g>
  <g id="ab" data-name="&amp;lt;径向重复&amp;gt;">
    <g id="ac" data-name="&amp;lt;径向重复&amp;gt;">
      <polygon points="77.49 51.62 124.47 121.15 64.76 62.2 77.49 51.62" fill="#ea572a"/>
    </g>
  </g>
  <g id="ad" data-name="&amp;lt;径向重复&amp;gt;">
    <g id="ae" data-name="&amp;lt;径向重复&amp;gt;">
      <polygon points="114.4 34.54 133.09 116.34 98.71 39.8 114.4 34.54" fill="#ea572a"/>
    </g>
  </g>
  <g id="af" data-name="&amp;lt;径向重复&amp;gt;">
    <g id="ag" data-name="&amp;lt;径向重复&amp;gt;">
      <polygon points="155 31.95 142.88 114.98 138.47 31.18 155 31.95" fill="#ea572a"/>
    </g>
  </g>
  <g id="ah" data-name="&amp;lt;径向重复&amp;gt;">
    <g id="ai" data-name="&amp;lt;径向重复&amp;gt;">
      <polygon points="193.79 44.19 152.49 117.23 178.65 37.51 193.79 44.19" fill="#ea572a"/>
    </g>
  </g>
</svg>