<?xml version="1.0" encoding="UTF-8"?>
<svg id="a" data-name="图层 1" xmlns="http://www.w3.org/2000/svg" width="100mm" height="100mm" viewBox="0 0 283.46 283.46">
  <g id="b" data-name="&amp;lt;径向重复&amp;gt;">
    <g id="c" data-name="&amp;lt;径向重复&amp;gt;">
      <path d="M141.73,172.14c-1.25,0-2.22-1.2-2.07-2.57.3-2.71.6-5.42.91-8.12.33-2.99.67-5.98,1-8.97,0-.09.08-.15.16-.15.07,0,.15.05.16.15l1.91,17.1c.15,1.37-.82,2.57-2.07,2.57Z" fill="#f08126"/>
    </g>
  </g>
  <g id="d" data-name="&amp;lt;径向重复&amp;gt;">
    <g id="e" data-name="&amp;lt;径向重复&amp;gt;">
      <path d="M132.34,170.65c-1.19-.39-1.74-1.83-1.17-3.08,1.12-2.48,2.25-4.96,3.37-7.45,1.24-2.74,2.48-5.48,3.73-8.22.04-.08.12-.12.2-.1.07.02.12.09.1.2l-3.47,16.85c-.28,1.35-1.57,2.19-2.76,1.8Z" fill="#f08126"/>
    </g>
  </g>
  <g id="f" data-name="&amp;lt;径向重复&amp;gt;">
    <g id="g" data-name="&amp;lt;径向重复&amp;gt;">
      <path d="M123.86,166.33c-1.01-.74-1.09-2.28-.16-3.29,1.84-2.01,3.67-4.03,5.51-6.04,2.03-2.22,4.06-4.45,6.08-6.67.06-.07.15-.08.22-.03.06.04.09.13.04.22l-8.5,14.95c-.68,1.19-2.17,1.6-3.18.86Z" fill="#f08126"/>
    </g>
  </g>
  <g id="h" data-name="&amp;lt;径向重复&amp;gt;">
    <g id="i" data-name="&amp;lt;径向重复&amp;gt;">
      <path d="M117.13,159.61c-.74-1.01-.33-2.5.86-3.18,2.37-1.35,4.74-2.69,7.11-4.04,2.62-1.49,5.23-2.98,7.85-4.46.08-.04.17-.03.22.04.04.06.05.15-.03.22l-12.71,11.59c-1.01.93-2.56.85-3.29-.16Z" fill="#f08126"/>
    </g>
  </g>
  <g id="j" data-name="&amp;lt;径向重复&amp;gt;">
    <g id="k" data-name="&amp;lt;径向重复&amp;gt;">
      <path d="M112.81,151.13c-.39-1.19.46-2.48,1.8-2.76,2.67-.55,5.34-1.1,8.01-1.65,2.95-.61,5.9-1.21,8.84-1.82.09-.02.17.03.2.1.02.07,0,.16-.1.2l-15.67,7.1c-1.25.57-2.7.02-3.08-1.17Z" fill="#f08126"/>
    </g>
  </g>
  <g id="l" data-name="&amp;lt;径向重复&amp;gt;">
    <g id="m" data-name="&amp;lt;径向重复&amp;gt;">
      <path d="M111.32,141.73c0-1.25,1.2-2.22,2.57-2.07,2.71.3,5.42.6,8.12.91,2.99.33,5.98.67,8.97,1,.09,0,.15.08.15.16,0,.07-.05.15-.15.16l-17.1,1.91c-1.37.15-2.57-.82-2.57-2.07Z" fill="#f08126"/>
    </g>
  </g>
  <g id="n" data-name="&amp;lt;径向重复&amp;gt;">
    <g id="o" data-name="&amp;lt;径向重复&amp;gt;">
      <path d="M112.81,132.34c.39-1.19,1.83-1.74,3.08-1.17,2.48,1.12,4.96,2.25,7.45,3.37,2.74,1.24,5.48,2.48,8.22,3.73.08.04.12.12.1.2-.02.07-.09.12-.2.1l-16.85-3.47c-1.35-.28-2.19-1.57-1.8-2.76Z" fill="#f08126"/>
    </g>
  </g>
  <g id="p" data-name="&amp;lt;径向重复&amp;gt;">
    <g id="q" data-name="&amp;lt;径向重复&amp;gt;">
      <path d="M117.13,123.86c.74-1.01,2.28-1.09,3.29-.16,2.01,1.84,4.03,3.67,6.04,5.51,2.22,2.03,4.45,4.06,6.67,6.08.07.06.08.15.03.22-.04.06-.13.09-.22.04l-14.95-8.5c-1.19-.68-1.6-2.17-.86-3.18Z" fill="#f08126"/>
    </g>
  </g>
  <g id="r" data-name="&amp;lt;径向重复&amp;gt;">
    <g id="s" data-name="&amp;lt;径向重复&amp;gt;">
      <path d="M123.86,117.13c1.01-.74,2.5-.33,3.18.86,1.35,2.37,2.69,4.74,4.04,7.11,1.49,2.62,2.98,5.23,4.46,7.85.04.08.03.17-.04.22-.06.04-.15.05-.22-.03l-11.59-12.71c-.93-1.01-.85-2.56.16-3.29Z" fill="#f08126"/>
    </g>
  </g>
  <g id="t" data-name="&amp;lt;径向重复&amp;gt;">
    <g id="u" data-name="&amp;lt;径向重复&amp;gt;">
      <path d="M132.34,112.81c1.19-.39,2.48.46,2.76,1.8.55,2.67,1.1,5.34,1.65,8.01.61,2.95,1.21,5.9,1.82,8.84.02.09-.03.17-.1.2-.07.02-.16,0-.2-.1l-7.1-15.67c-.57-1.25-.02-2.7,1.17-3.08Z" fill="#f08126"/>
    </g>
  </g>
  <g id="v" data-name="&amp;lt;径向重复&amp;gt;">
    <g id="w" data-name="&amp;lt;径向重复&amp;gt;">
      <path d="M141.73,111.32c1.25,0,2.22,1.2,2.07,2.57-.3,2.71-.6,5.42-.91,8.12-.33,2.99-.67,5.98-1,8.97,0,.09-.08.15-.16.15-.07,0-.15-.05-.16-.15l-1.91-17.1c-.15-1.37.82-2.57,2.07-2.57Z" fill="#f08126"/>
    </g>
  </g>
  <g id="x" data-name="&amp;lt;径向重复&amp;gt;">
    <g id="y" data-name="&amp;lt;径向重复&amp;gt;">
      <path d="M151.13,112.81c1.19.39,1.74,1.83,1.17,3.08-1.12,2.48-2.25,4.96-3.37,7.45-1.24,2.74-2.48,5.48-3.73,8.22-.04.08-.12.12-.2.1-.07-.02-.12-.09-.1-.2l3.47-16.85c.28-1.35,1.57-2.19,2.76-1.8Z" fill="#f08126"/>
    </g>
  </g>
  <g id="z" data-name="&amp;lt;径向重复&amp;gt;">
    <g id="aa" data-name="&amp;lt;径向重复&amp;gt;">
      <path d="M159.61,117.13c1.01.74,1.09,2.28.16,3.29-1.84,2.01-3.67,4.03-5.51,6.04-2.03,2.22-4.06,4.45-6.08,6.67-.06.07-.15.08-.22.03-.06-.04-.09-.13-.04-.22l8.5-14.95c.68-1.19,2.17-1.6,3.18-.86Z" fill="#f08126"/>
    </g>
  </g>
  <g id="ab" data-name="&amp;lt;径向重复&amp;gt;">
    <g id="ac" data-name="&amp;lt;径向重复&amp;gt;">
      <path d="M166.33,123.86c.74,1.01.33,2.5-.86,3.18-2.37,1.35-4.74,2.69-7.11,4.04-2.62,1.49-5.23,2.98-7.85,4.46-.08.04-.17.03-.22-.04-.04-.06-.05-.15.03-.22l12.71-11.59c1.01-.93,2.56-.85,3.29.16Z" fill="#f08126"/>
    </g>
  </g>
  <g id="ad" data-name="&amp;lt;径向重复&amp;gt;">
    <g id="ae" data-name="&amp;lt;径向重复&amp;gt;">
      <path d="M170.65,132.34c.39,1.19-.46,2.48-1.8,2.76-2.67.55-5.34,1.1-8.01,1.65-2.95.61-5.9,1.21-8.84,1.82-.09.02-.17-.03-.2-.1-.02-.07,0-.16.1-.2l15.67-7.1c1.25-.57,2.7-.02,3.08,1.17Z" fill="#f08126"/>
    </g>
  </g>
  <g id="af" data-name="&amp;lt;径向重复&amp;gt;">
    <g id="ag" data-name="&amp;lt;径向重复&amp;gt;">
      <path d="M172.14,141.73c0,1.25-1.2,2.22-2.57,2.07-2.71-.3-5.42-.6-8.12-.91-2.99-.33-5.98-.67-8.97-1-.09,0-.15-.08-.15-.16,0-.07.05-.15.15-.16l17.1-1.91c1.37-.15,2.57.82,2.57,2.07Z" fill="#f08126"/>
    </g>
  </g>
  <g id="ah" data-name="&amp;lt;径向重复&amp;gt;">
    <g id="ai" data-name="&amp;lt;径向重复&amp;gt;">
      <path d="M170.65,151.13c-.39,1.19-1.83,1.74-3.08,1.17-2.48-1.12-4.96-2.25-7.45-3.37-2.74-1.24-5.48-2.48-8.22-3.73-.08-.04-.12-.12-.1-.2.02-.07.09-.12.2-.1l16.85,3.47c1.35.28,2.19,1.57,1.8,2.76Z" fill="#f08126"/>
    </g>
  </g>
  <g id="aj" data-name="&amp;lt;径向重复&amp;gt;">
    <g id="ak" data-name="&amp;lt;径向重复&amp;gt;">
      <path d="M166.33,159.61c-.74,1.01-2.28,1.09-3.29.16-2.01-1.84-4.03-3.67-6.04-5.51-2.22-2.03-4.45-4.06-6.67-6.08-.07-.06-.08-.15-.03-.22.04-.06.13-.09.22-.04l14.95,8.5c1.19.68,1.6,2.17.86,3.18Z" fill="#f08126"/>
    </g>
  </g>
  <g id="al" data-name="&amp;lt;径向重复&amp;gt;">
    <g id="am" data-name="&amp;lt;径向重复&amp;gt;">
      <path d="M159.61,166.33c-1.01.74-2.5.33-3.18-.86-1.35-2.37-2.69-4.74-4.04-7.11-1.49-2.62-2.98-5.23-4.46-7.85-.04-.08-.03-.17.04-.22.06-.04.15-.05.22.03l11.59,12.71c.93,1.01.85,2.56-.16,3.29Z" fill="#f08126"/>
    </g>
  </g>
  <g id="an" data-name="&amp;lt;径向重复&amp;gt;">
    <g id="ao" data-name="&amp;lt;径向重复&amp;gt;">
      <path d="M151.13,170.65c-1.19.39-2.48-.46-2.76-1.8-.55-2.67-1.1-5.34-1.65-8.01-.61-2.95-1.21-5.9-1.82-8.84-.02-.09.03-.17.1-.2.07-.02.16,0,.2.1l7.1,15.67c.57,1.25.02,2.7-1.17,3.08Z" fill="#f08126"/>
    </g>
  </g>
</svg>