<?xml version="1.0" encoding="UTF-8"?>
<svg id="a" data-name="图层 1" xmlns="http://www.w3.org/2000/svg" width="100mm" height="100mm" viewBox="0 0 283.46 283.46">
  <g id="b" data-name="&amp;lt;径向重复&amp;gt;">
    <polygon points="139.34 252.28 141.73 175.3 144.12 252.28 139.34 252.28" fill="#ea572a"/>
  </g>
  <g id="c" data-name="&amp;lt;径向重复&amp;gt;">
    <polygon points="108.29 247.13 132.28 173.94 112.88 248.48 108.29 247.13" fill="#ea572a"/>
  </g>
  <g id="d" data-name="&amp;lt;径向重复&amp;gt;">
    <polygon points="79.95 233.44 123.59 169.97 83.98 236.03 79.95 233.44" fill="#ea572a"/>
  </g>
  <g id="e" data-name="&amp;lt;径向重复&amp;gt;">
    <polygon points="56.62 212.32 116.37 163.71 59.75 215.93 56.62 212.32" fill="#ea572a"/>
  </g>
  <g id="f" data-name="&amp;lt;径向重复&amp;gt;">
    <polygon points="40.18 185.48 111.2 155.68 42.16 189.83 40.18 185.48" fill="#ea572a"/>
  </g>
  <g id="g" data-name="&amp;lt;径向重复&amp;gt;">
    <polygon points="31.97 155.1 108.51 146.51 32.65 159.83 31.97 155.1" fill="#ea572a"/>
  </g>
  <g id="h" data-name="&amp;lt;径向重复&amp;gt;">
    <polygon points="32.65 123.63 108.51 136.96 31.97 128.37 32.65 123.63" fill="#ea572a"/>
  </g>
  <g id="i" data-name="&amp;lt;径向重复&amp;gt;">
    <polygon points="42.16 93.63 111.2 127.79 40.18 97.98 42.16 93.63" fill="#ea572a"/>
  </g>
  <g id="j" data-name="&amp;lt;径向重复&amp;gt;">
    <polygon points="59.75 67.53 116.37 119.75 56.62 71.14 59.75 67.53" fill="#ea572a"/>
  </g>
  <g id="k" data-name="&amp;lt;径向重复&amp;gt;">
    <polygon points="83.97 47.44 123.59 113.5 79.95 50.02 83.97 47.44" fill="#ea572a"/>
  </g>
  <g id="l" data-name="&amp;lt;径向重复&amp;gt;">
    <polygon points="112.88 34.99 132.28 109.53 108.29 36.33 112.88 34.99" fill="#ea572a"/>
  </g>
  <g id="m" data-name="&amp;lt;径向重复&amp;gt;">
    <polygon points="144.12 31.18 141.73 108.17 139.34 31.18 144.12 31.18" fill="#ea572a"/>
  </g>
  <g id="n" data-name="&amp;lt;径向重复&amp;gt;">
    <polygon points="175.17 36.33 151.19 109.53 170.58 34.99 175.17 36.33" fill="#ea572a"/>
  </g>
  <g id="o" data-name="&amp;lt;径向重复&amp;gt;">
    <polygon points="203.51 50.02 159.88 113.5 199.49 47.44 203.51 50.02" fill="#ea572a"/>
  </g>
  <g id="p" data-name="&amp;lt;径向重复&amp;gt;">
    <polygon points="226.85 71.14 167.1 119.75 223.72 67.53 226.85 71.14" fill="#ea572a"/>
  </g>
  <g id="q" data-name="&amp;lt;径向重复&amp;gt;">
    <polygon points="243.29 97.98 172.26 127.79 241.3 93.63 243.29 97.98" fill="#ea572a"/>
  </g>
  <g id="r" data-name="&amp;lt;径向重复&amp;gt;">
    <polygon points="251.5 128.37 174.95 136.96 250.82 123.63 251.5 128.37" fill="#ea572a"/>
  </g>
  <g id="s" data-name="&amp;lt;径向重复&amp;gt;">
    <polygon points="250.82 159.83 174.95 146.51 251.5 155.1 250.82 159.83" fill="#ea572a"/>
  </g>
  <g id="t" data-name="&amp;lt;径向重复&amp;gt;">
    <polygon points="241.3 189.83 172.26 155.68 243.29 185.48 241.3 189.83" fill="#ea572a"/>
  </g>
  <g id="u" data-name="&amp;lt;径向重复&amp;gt;">
    <polygon points="223.72 215.93 167.1 163.71 226.85 212.32 223.72 215.93" fill="#ea572a"/>
  </g>
  <g id="v" data-name="&amp;lt;径向重复&amp;gt;">
    <polygon points="199.49 236.03 159.88 169.97 203.51 233.44 199.49 236.03" fill="#ea572a"/>
  </g>
  <g id="w" data-name="&amp;lt;径向重复&amp;gt;">
    <polygon points="170.58 248.48 151.19 173.94 175.17 247.13 170.58 248.48" fill="#ea572a"/>
  </g>
</svg>