<?xml version="1.0" encoding="UTF-8"?>
<svg id="a" data-name="图层 1" xmlns="http://www.w3.org/2000/svg" width="100mm" height="100mm" viewBox="0 0 283.46 283.46">
  <g id="b" data-name="&amp;lt;径向重复&amp;gt;">
    <g id="c" data-name="&amp;lt;径向重复&amp;gt;">
      <path d="M250.57,141.73c0,5.27-4.2,9.36-8.96,8.72-9.45-1.27-18.9-2.55-28.35-3.82-10.44-1.41-20.87-2.82-31.31-4.22-.31-.04-.54-.33-.54-.67,0-.31.18-.62.54-.67l59.65-8.05c4.76-.64,8.96,3.44,8.96,8.72Z" fill="#f8cb78"/>
    </g>
  </g>
  <g id="d" data-name="&amp;lt;径向重复&amp;gt;">
    <g id="e" data-name="&amp;lt;径向重复&amp;gt;">
      <path d="M246.16,172.39c-1.49,5.06-6.67,7.8-11.06,5.84-8.71-3.89-17.41-7.77-26.12-11.65-9.62-4.29-19.23-8.58-28.85-12.87-.28-.13-.42-.47-.33-.8.09-.3.35-.55.71-.49l59.5,9.08c4.75.73,7.63,5.83,6.14,10.89Z" fill="#f8cb78"/>
    </g>
  </g>
  <g id="f" data-name="&amp;lt;径向重复&amp;gt;">
    <g id="g" data-name="&amp;lt;径向重复&amp;gt;">
      <path d="M233.29,200.57c-2.85,4.44-8.59,5.6-12.25,2.49-7.26-6.18-14.52-12.36-21.78-18.54-8.02-6.83-16.03-13.65-24.05-20.48-.24-.2-.28-.57-.09-.86.17-.26.49-.43.82-.27l54.53,25.48c4.35,2.03,5.68,7.74,2.83,12.18Z" fill="#f8cb78"/>
    </g>
  </g>
  <g id="h" data-name="&amp;lt;径向重复&amp;gt;">
    <g id="i" data-name="&amp;lt;径向重复&amp;gt;">
      <path d="M213,223.98c-3.99,3.45-9.82,2.96-12.46-1.07-5.22-7.98-10.45-15.95-15.67-23.93-5.77-8.81-11.54-17.62-17.31-26.42-.17-.26-.1-.62.15-.85.24-.2.59-.27.86-.03l45.14,39.81c3.61,3.18,3.27,9.03-.72,12.48Z" fill="#f8cb78"/>
    </g>
  </g>
  <g id="j" data-name="&amp;lt;径向重复&amp;gt;">
    <g id="k" data-name="&amp;lt;径向重复&amp;gt;">
      <path d="M186.94,240.73c-4.8,2.19-10.26.07-11.65-4.53-2.77-9.12-5.53-18.25-8.3-27.37-3.05-10.08-6.11-20.15-9.16-30.23-.09-.3.08-.63.39-.77.28-.13.64-.09.83.21l32.1,50.92c2.56,4.07.59,9.58-4.21,11.78Z" fill="#f8cb78"/>
    </g>
  </g>
  <g id="l" data-name="&amp;lt;径向重复&amp;gt;">
    <g id="m" data-name="&amp;lt;径向重复&amp;gt;">
      <path d="M157.22,249.46c-5.22.75-9.86-2.83-9.9-7.63-.08-9.53-.17-19.07-.25-28.6-.09-10.53-.18-21.06-.28-31.59,0-.31.25-.58.59-.63.31-.04.64.09.74.44l16.45,57.9c1.31,4.62-2.13,9.36-7.35,10.11Z" fill="#f8cb78"/>
    </g>
  </g>
  <g id="n" data-name="&amp;lt;径向重复&amp;gt;">
    <g id="o" data-name="&amp;lt;径向重复&amp;gt;">
      <path d="M126.24,249.46c-5.22-.75-8.67-5.49-7.35-10.11,2.61-9.17,5.21-18.34,7.82-27.51,2.88-10.13,5.76-20.26,8.64-30.39.08-.3.4-.49.74-.44.31.04.59.27.59.63l-.52,60.19c-.04,4.81-4.68,8.38-9.91,7.63Z" fill="#f8cb78"/>
    </g>
  </g>
  <g id="p" data-name="&amp;lt;径向重复&amp;gt;">
    <g id="q" data-name="&amp;lt;径向重复&amp;gt;">
      <path d="M96.52,240.73c-4.8-2.19-6.77-7.71-4.21-11.78,5.08-8.07,10.17-16.13,15.25-24.2,5.62-8.91,11.23-17.81,16.85-26.72.16-.26.53-.35.83-.21.28.13.49.42.39.77l-17.46,57.6c-1.39,4.6-6.86,6.72-11.65,4.53Z" fill="#f8cb78"/>
    </g>
  </g>
  <g id="r" data-name="&amp;lt;径向重复&amp;gt;">
    <g id="s" data-name="&amp;lt;径向重复&amp;gt;">
      <path d="M70.46,223.98c-3.99-3.45-4.32-9.3-.72-12.48,7.15-6.31,14.3-12.61,21.45-18.92,7.9-6.96,15.8-13.93,23.69-20.89.23-.2.6-.19.86.03.24.2.35.54.15.85l-32.98,50.35c-2.63,4.02-8.47,4.52-12.46,1.07Z" fill="#f8cb78"/>
    </g>
  </g>
  <g id="t" data-name="&amp;lt;径向重复&amp;gt;">
    <g id="u" data-name="&amp;lt;径向重复&amp;gt;">
      <path d="M50.18,200.57c-2.85-4.44-1.53-10.15,2.83-12.18,8.64-4.04,17.28-8.07,25.91-12.11,9.54-4.46,19.08-8.91,28.62-13.37.28-.13.63-.01.82.27.17.26.19.62-.09.86l-45.83,39.02c-3.66,3.12-9.4,1.95-12.25-2.49Z" fill="#f8cb78"/>
    </g>
  </g>
  <g id="v" data-name="&amp;lt;径向重复&amp;gt;">
    <g id="w" data-name="&amp;lt;径向重复&amp;gt;">
      <path d="M37.31,172.39c-1.49-5.06,1.39-10.16,6.14-10.89,9.42-1.44,18.85-2.88,28.27-4.32,10.41-1.59,20.82-3.18,31.23-4.77.31-.05.61.17.71.49.09.3,0,.65-.33.8l-54.97,24.53c-4.39,1.96-9.57-.78-11.06-5.84Z" fill="#f8cb78"/>
    </g>
  </g>
  <g id="x" data-name="&amp;lt;径向重复&amp;gt;">
    <g id="y" data-name="&amp;lt;径向重复&amp;gt;">
      <path d="M32.9,141.73c0-5.27,4.2-9.36,8.96-8.72,9.45,1.27,18.9,2.55,28.35,3.82,10.44,1.41,20.87,2.82,31.31,4.22.31.04.54.33.54.67,0,.31-.18.62-.54.67l-59.65,8.05c-4.76.64-8.96-3.44-8.96-8.72Z" fill="#f8cb78"/>
    </g>
  </g>
  <g id="z" data-name="&amp;lt;径向重复&amp;gt;">
    <g id="aa" data-name="&amp;lt;径向重复&amp;gt;">
      <path d="M37.31,111.07c1.49-5.06,6.67-7.8,11.06-5.84,8.71,3.89,17.41,7.77,26.12,11.65,9.62,4.29,19.23,8.58,28.85,12.87.28.13.42.47.33.8-.09.3-.35.55-.71.49l-59.5-9.08c-4.75-.73-7.63-5.83-6.14-10.89Z" fill="#f8cb78"/>
    </g>
  </g>
  <g id="ab" data-name="&amp;lt;径向重复&amp;gt;">
    <g id="ac" data-name="&amp;lt;径向重复&amp;gt;">
      <path d="M50.18,82.89c2.85-4.44,8.59-5.6,12.25-2.49,7.26,6.18,14.52,12.36,21.78,18.54,8.02,6.83,16.03,13.65,24.05,20.48.24.2.28.57.09.86-.17.26-.49.43-.82.27l-54.53-25.48c-4.35-2.03-5.68-7.74-2.83-12.18Z" fill="#f8cb78"/>
    </g>
  </g>
  <g id="ad" data-name="&amp;lt;径向重复&amp;gt;">
    <g id="ae" data-name="&amp;lt;径向重复&amp;gt;">
      <path d="M70.46,59.48c3.99-3.45,9.82-2.96,12.46,1.07,5.22,7.98,10.45,15.95,15.67,23.93,5.77,8.81,11.54,17.62,17.31,26.42.17.26.1.62-.15.85-.24.2-.59.27-.86.03l-45.14-39.81c-3.61-3.18-3.27-9.03.72-12.48Z" fill="#f8cb78"/>
    </g>
  </g>
  <g id="af" data-name="&amp;lt;径向重复&amp;gt;">
    <g id="ag" data-name="&amp;lt;径向重复&amp;gt;">
      <path d="M96.52,42.73c4.8-2.19,10.26-.07,11.65,4.53,2.77,9.12,5.53,18.25,8.3,27.37,3.05,10.08,6.11,20.15,9.16,30.23.09.3-.08.63-.39.77-.28.13-.64.09-.83-.21l-32.1-50.92c-2.56-4.07-.59-9.58,4.21-11.78Z" fill="#f8cb78"/>
    </g>
  </g>
  <g id="ah" data-name="&amp;lt;径向重复&amp;gt;">
    <g id="ai" data-name="&amp;lt;径向重复&amp;gt;">
      <path d="M126.24,34.01c5.22-.75,9.86,2.83,9.9,7.63.08,9.53.17,19.07.25,28.6.09,10.53.18,21.06.28,31.59,0,.31-.25.58-.59.63-.31.04-.64-.09-.74-.44l-16.45-57.9c-1.31-4.62,2.13-9.36,7.35-10.11Z" fill="#f8cb78"/>
    </g>
  </g>
  <g id="aj" data-name="&amp;lt;径向重复&amp;gt;">
    <g id="ak" data-name="&amp;lt;径向重复&amp;gt;">
      <path d="M157.22,34.01c5.22.75,8.67,5.49,7.35,10.11-2.61,9.17-5.21,18.34-7.82,27.51-2.88,10.13-5.76,20.26-8.64,30.39-.08.3-.4.49-.74.44-.31-.04-.59-.27-.59-.63l.52-60.19c.04-4.81,4.68-8.38,9.91-7.63Z" fill="#f8cb78"/>
    </g>
  </g>
  <g id="al" data-name="&amp;lt;径向重复&amp;gt;">
    <g id="am" data-name="&amp;lt;径向重复&amp;gt;">
      <path d="M186.94,42.73c4.8,2.19,6.77,7.71,4.21,11.78-5.08,8.07-10.17,16.13-15.25,24.2-5.62,8.91-11.23,17.81-16.85,26.72-.16.26-.53.35-.83.21-.28-.13-.49-.42-.39-.77l17.46-57.6c1.39-4.6,6.86-6.72,11.65-4.53Z" fill="#f8cb78"/>
    </g>
  </g>
  <g id="an" data-name="&amp;lt;径向重复&amp;gt;">
    <g id="ao" data-name="&amp;lt;径向重复&amp;gt;">
      <path d="M213,59.48c3.99,3.45,4.32,9.3.72,12.48-7.15,6.31-14.3,12.61-21.45,18.92-7.9,6.96-15.8,13.93-23.69,20.89-.23.2-.6.19-.86-.03-.24-.2-.35-.54-.15-.85l32.98-50.35c2.63-4.02,8.47-4.52,12.46-1.07Z" fill="#f8cb78"/>
    </g>
  </g>
  <g id="ap" data-name="&amp;lt;径向重复&amp;gt;">
    <g id="aq" data-name="&amp;lt;径向重复&amp;gt;">
      <path d="M233.29,82.89c2.85,4.44,1.53,10.15-2.83,12.18-8.64,4.04-17.28,8.07-25.91,12.11-9.54,4.46-19.08,8.91-28.62,13.37-.28.13-.63.01-.82-.27-.17-.26-.19-.62.09-.86l45.83-39.02c3.66-3.12,9.4-1.95,12.25,2.49Z" fill="#f8cb78"/>
    </g>
  </g>
  <g id="ar" data-name="&amp;lt;径向重复&amp;gt;">
    <g id="as" data-name="&amp;lt;径向重复&amp;gt;">
      <path d="M246.16,111.07c1.49,5.06-1.39,10.16-6.14,10.89-9.42,1.44-18.85,2.88-28.27,4.32-10.41,1.59-20.82,3.18-31.23,4.77-.31.05-.61-.17-.71-.49-.09-.3,0-.65.33-.8l54.97-24.53c4.39-1.96,9.57.78,11.06,5.84Z" fill="#f8cb78"/>
    </g>
  </g>
</svg>