<?xml version="1.0" encoding="UTF-8"?>
<svg id="a" data-name="图层 1" xmlns="http://www.w3.org/2000/svg" width="100mm" height="100mm" viewBox="0 0 283.46 283.46">
  <g id="b" data-name="&amp;lt;径向重复&amp;gt;">
    <g id="c" data-name="&amp;lt;径向重复&amp;gt;">
      <path d="M141.73,184.92c-2.15,0-3.81-1.89-3.55-4.03.52-4.25,1.04-8.5,1.56-12.75.57-4.69,1.15-9.39,1.72-14.08.02-.14.13-.24.27-.24.13,0,.25.08.27.24l3.28,26.82c.26,2.14-1.4,4.03-3.55,4.03Z" fill="#f8cb78"/>
    </g>
  </g>
  <g id="d" data-name="&amp;lt;径向重复&amp;gt;">
    <g id="e" data-name="&amp;lt;径向重复&amp;gt;">
      <path d="M129.56,183.17c-2.06-.61-3.13-2.89-2.27-4.87,1.7-3.93,3.39-7.86,5.09-11.79,1.87-4.34,3.75-8.68,5.62-13.02.05-.13.2-.2.33-.16.12.04.22.15.19.31l-4.41,26.66c-.35,2.13-2.48,3.47-4.54,2.87Z" fill="#f8cb78"/>
    </g>
  </g>
  <g id="f" data-name="&amp;lt;径向重复&amp;gt;">
    <g id="g" data-name="&amp;lt;径向重复&amp;gt;">
      <path d="M118.38,178.06c-1.81-1.16-2.19-3.65-.81-5.31,2.73-3.29,5.47-6.59,8.2-9.88,3.02-3.64,6.04-7.27,9.06-10.91.09-.11.24-.13.36-.06.11.07.17.21.1.35l-11.74,24.34c-.94,1.94-3.36,2.63-5.17,1.47Z" fill="#f8cb78"/>
    </g>
  </g>
  <g id="h" data-name="&amp;lt;径向重复&amp;gt;">
    <g id="i" data-name="&amp;lt;径向重复&amp;gt;">
      <path d="M109.09,170.01c-1.41-1.62-1.07-4.12.72-5.32,3.55-2.39,7.1-4.78,10.65-7.17,3.92-2.64,7.84-5.28,11.77-7.92.12-.08.27-.06.36.05.08.1.1.24,0,.37l-18.13,20.04c-1.45,1.6-3.97,1.58-5.37-.05Z" fill="#f8cb78"/>
    </g>
  </g>
  <g id="j" data-name="&amp;lt;径向重复&amp;gt;">
    <g id="k" data-name="&amp;lt;径向重复&amp;gt;">
      <path d="M102.45,159.67c-.89-1.96.13-4.25,2.19-4.91,4.08-1.29,8.16-2.59,12.24-3.88,4.51-1.43,9.01-2.86,13.52-4.28.13-.04.28.02.33.15.05.12.03.26-.11.35l-23.04,14.13c-1.84,1.13-4.25.4-5.14-1.56Z" fill="#f8cb78"/>
    </g>
  </g>
  <g id="l" data-name="&amp;lt;径向重复&amp;gt;">
    <g id="m" data-name="&amp;lt;径向重复&amp;gt;">
      <path d="M98.98,147.88c-.31-2.13,1.33-4.04,3.48-4.09,4.28-.09,8.56-.18,12.84-.27,4.73-.1,9.45-.2,14.18-.3.14,0,.26.1.28.24.02.13-.04.26-.2.31l-26.08,7.06c-2.08.56-4.19-.82-4.5-2.94Z" fill="#f8cb78"/>
    </g>
  </g>
  <g id="n" data-name="&amp;lt;径向重复&amp;gt;">
    <g id="o" data-name="&amp;lt;径向重复&amp;gt;">
      <path d="M98.98,135.59c.31-2.13,2.41-3.51,4.5-2.94,4.13,1.12,8.26,2.24,12.4,3.36,4.56,1.24,9.13,2.47,13.69,3.71.13.04.22.17.2.31-.02.13-.12.24-.28.24l-27.02-.57c-2.16-.05-3.79-1.96-3.48-4.09Z" fill="#f8cb78"/>
    </g>
  </g>
  <g id="p" data-name="&amp;lt;径向重复&amp;gt;">
    <g id="q" data-name="&amp;lt;径向重复&amp;gt;">
      <path d="M102.45,123.79c.89-1.96,3.3-2.69,5.14-1.56,3.65,2.24,7.3,4.48,10.95,6.71,4.03,2.47,8.06,4.94,12.09,7.41.12.07.16.22.11.35-.05.12-.18.2-.33.15l-25.76-8.16c-2.06-.65-3.08-2.95-2.19-4.91Z" fill="#f8cb78"/>
    </g>
  </g>
  <g id="r" data-name="&amp;lt;径向重复&amp;gt;">
    <g id="s" data-name="&amp;lt;径向重复&amp;gt;">
      <path d="M109.09,113.45c1.41-1.62,3.93-1.65,5.37-.05,2.87,3.18,5.74,6.35,8.61,9.52,3.17,3.51,6.34,7.01,9.51,10.52.09.1.1.26,0,.37-.08.1-.23.14-.36.05l-22.42-15.09c-1.79-1.2-2.13-3.7-.72-5.32Z" fill="#f8cb78"/>
    </g>
  </g>
  <g id="t" data-name="&amp;lt;径向重复&amp;gt;">
    <g id="u" data-name="&amp;lt;径向重复&amp;gt;">
      <path d="M118.38,105.4c1.81-1.16,4.23-.47,5.17,1.47,1.86,3.86,3.72,7.71,5.58,11.57,2.05,4.26,4.11,8.52,6.16,12.77.06.13.02.28-.1.35-.11.07-.26.07-.36-.06l-17.26-20.79c-1.38-1.66-1-4.15.81-5.31Z" fill="#f8cb78"/>
    </g>
  </g>
  <g id="v" data-name="&amp;lt;径向重复&amp;gt;">
    <g id="w" data-name="&amp;lt;径向重复&amp;gt;">
      <path d="M129.57,100.29c2.06-.61,4.19.74,4.54,2.87.7,4.22,1.4,8.45,2.1,12.67.77,4.66,1.54,9.33,2.31,13.99.02.14-.06.27-.19.31-.12.04-.27,0-.33-.16l-10.7-24.81c-.85-1.98.21-4.26,2.27-4.87Z" fill="#f8cb78"/>
    </g>
  </g>
  <g id="x" data-name="&amp;lt;径向重复&amp;gt;">
    <g id="y" data-name="&amp;lt;径向重复&amp;gt;">
      <path d="M141.73,98.55c2.15,0,3.81,1.89,3.55,4.03-.52,4.25-1.04,8.5-1.56,12.75-.57,4.69-1.15,9.39-1.72,14.08-.02.14-.13.24-.27.24-.13,0-.25-.08-.27-.24l-3.28-26.82c-.26-2.14,1.4-4.03,3.55-4.03Z" fill="#f8cb78"/>
    </g>
  </g>
  <g id="z" data-name="&amp;lt;径向重复&amp;gt;">
    <g id="aa" data-name="&amp;lt;径向重复&amp;gt;">
      <path d="M153.9,100.29c2.06.61,3.13,2.89,2.27,4.87-1.7,3.93-3.39,7.86-5.09,11.79-1.87,4.34-3.75,8.68-5.62,13.02-.05.13-.2.2-.33.16-.12-.04-.22-.15-.19-.31l4.41-26.66c.35-2.13,2.48-3.47,4.54-2.87Z" fill="#f8cb78"/>
    </g>
  </g>
  <g id="ab" data-name="&amp;lt;径向重复&amp;gt;">
    <g id="ac" data-name="&amp;lt;径向重复&amp;gt;">
      <path d="M165.08,105.4c1.81,1.16,2.19,3.65.81,5.31-2.73,3.29-5.47,6.59-8.2,9.88-3.02,3.64-6.04,7.27-9.06,10.91-.09.11-.24.13-.36.06-.11-.07-.17-.21-.1-.35l11.74-24.34c.94-1.94,3.36-2.63,5.17-1.47Z" fill="#f8cb78"/>
    </g>
  </g>
  <g id="ad" data-name="&amp;lt;径向重复&amp;gt;">
    <g id="ae" data-name="&amp;lt;径向重复&amp;gt;">
      <path d="M174.37,113.45c1.41,1.62,1.07,4.12-.72,5.32-3.55,2.39-7.1,4.78-10.65,7.17-3.92,2.64-7.84,5.28-11.77,7.92-.12.08-.27.06-.36-.05-.08-.1-.1-.24,0-.37l18.13-20.04c1.45-1.6,3.97-1.58,5.37.05Z" fill="#f8cb78"/>
    </g>
  </g>
  <g id="af" data-name="&amp;lt;径向重复&amp;gt;">
    <g id="ag" data-name="&amp;lt;径向重复&amp;gt;">
      <path d="M181.02,123.79c.89,1.96-.13,4.25-2.19,4.91-4.08,1.29-8.16,2.59-12.24,3.88-4.51,1.43-9.01,2.86-13.52,4.28-.13.04-.28-.02-.33-.15-.05-.12-.03-.26.11-.35l23.04-14.13c1.84-1.13,4.25-.4,5.14,1.56Z" fill="#f8cb78"/>
    </g>
  </g>
  <g id="ah" data-name="&amp;lt;径向重复&amp;gt;">
    <g id="ai" data-name="&amp;lt;径向重复&amp;gt;">
      <path d="M184.48,135.59c.31,2.13-1.33,4.04-3.48,4.09-4.28.09-8.56.18-12.84.27-4.73.1-9.45.2-14.18.3-.14,0-.26-.1-.28-.24-.02-.13.04-.26.2-.31l26.08-7.06c2.08-.56,4.19.82,4.5,2.94Z" fill="#f8cb78"/>
    </g>
  </g>
  <g id="aj" data-name="&amp;lt;径向重复&amp;gt;">
    <g id="ak" data-name="&amp;lt;径向重复&amp;gt;">
      <path d="M184.48,147.88c-.31,2.13-2.41,3.51-4.5,2.94-4.13-1.12-8.26-2.24-12.4-3.36-4.56-1.24-9.13-2.47-13.69-3.71-.13-.04-.22-.17-.2-.31.02-.13.12-.24.28-.24l27.02.57c2.16.05,3.79,1.96,3.48,4.09Z" fill="#f8cb78"/>
    </g>
  </g>
  <g id="al" data-name="&amp;lt;径向重复&amp;gt;">
    <g id="am" data-name="&amp;lt;径向重复&amp;gt;">
      <path d="M181.02,159.67c-.89,1.96-3.3,2.69-5.14,1.56-3.65-2.24-7.3-4.48-10.95-6.71-4.03-2.47-8.06-4.94-12.09-7.41-.12-.07-.16-.22-.11-.35.05-.12.18-.2.33-.15l25.76,8.16c2.06.65,3.08,2.95,2.19,4.91Z" fill="#f8cb78"/>
    </g>
  </g>
  <g id="an" data-name="&amp;lt;径向重复&amp;gt;">
    <g id="ao" data-name="&amp;lt;径向重复&amp;gt;">
      <path d="M174.37,170.01c-1.41,1.62-3.93,1.65-5.37.05-2.87-3.18-5.74-6.35-8.61-9.52-3.17-3.51-6.34-7.01-9.51-10.52-.09-.1-.1-.26,0-.37.08-.1.23-.14.36-.05l22.42,15.09c1.79,1.2,2.13,3.7.72,5.32Z" fill="#f8cb78"/>
    </g>
  </g>
  <g id="ap" data-name="&amp;lt;径向重复&amp;gt;">
    <g id="aq" data-name="&amp;lt;径向重复&amp;gt;">
      <path d="M165.08,178.06c-1.81,1.16-4.23.47-5.17-1.47-1.86-3.86-3.72-7.71-5.58-11.57-2.05-4.26-4.11-8.52-6.16-12.77-.06-.13-.02-.28.1-.35.11-.07.26-.07.36.06l17.26,20.79c1.38,1.66,1,4.15-.81,5.31Z" fill="#f8cb78"/>
    </g>
  </g>
  <g id="ar" data-name="&amp;lt;径向重复&amp;gt;">
    <g id="as" data-name="&amp;lt;径向重复&amp;gt;">
      <path d="M153.9,183.17c-2.06.61-4.19-.74-4.54-2.87-.7-4.22-1.4-8.45-2.1-12.67-.77-4.66-1.54-9.33-2.31-13.99-.02-.14.06-.27.19-.31.12-.04.27,0,.33.16l10.7,24.81c.85,1.98-.21,4.26-2.27,4.87Z" fill="#f8cb78"/>
    </g>
  </g>
</svg>