<?xml version="1.0" encoding="UTF-8"?>
<svg id="a" data-name="图层 1" xmlns="http://www.w3.org/2000/svg" width="100mm" height="100mm" viewBox="0 0 283.46 283.46">
  <g id="b" data-name="&amp;lt;径向重复&amp;gt;">
    <g id="c" data-name="&amp;lt;径向重复&amp;gt;">
      <path d="M31.18,141.73c0-2.6,4.73-4.62,10.1-4.3,10.65.63,21.3,1.26,31.95,1.89,11.76.69,23.52,1.39,35.28,2.08.35.02.61.16.61.33,0,.15-.2.31-.61.33l-67.23,3.97c-5.37.32-10.1-1.7-10.1-4.3Z" fill="#f08126"/>
    </g>
  </g>
  <g id="d" data-name="&amp;lt;径向重复&amp;gt;">
    <g id="e" data-name="&amp;lt;径向重复&amp;gt;">
      <path d="M35.66,110.59c.73-2.5,5.84-3.1,10.91-1.28,10.04,3.6,20.08,7.21,30.12,10.81,11.09,3.98,22.18,7.96,33.27,11.94.33.12.54.33.49.49-.04.15-.28.24-.68.15l-65.63-15.13c-5.24-1.21-9.21-4.48-8.48-6.98Z" fill="#f08126"/>
    </g>
  </g>
  <g id="f" data-name="&amp;lt;径向重复&amp;gt;">
    <g id="g" data-name="&amp;lt;径向重复&amp;gt;">
      <path d="M48.73,81.96c1.41-2.19,6.48-1.33,10.83,1.84,8.62,6.29,17.24,12.57,25.86,18.86,9.52,6.94,19.04,13.89,28.56,20.83.28.2.42.47.33.61-.08.13-.34.15-.69-.05l-58.71-33.01c-4.69-2.64-7.58-6.89-6.17-9.08Z" fill="#f08126"/>
    </g>
  </g>
  <g id="h" data-name="&amp;lt;径向重复&amp;gt;">
    <g id="i" data-name="&amp;lt;径向重复&amp;gt;">
      <path d="M69.34,58.18c1.97-1.71,6.59.55,9.87,4.82,6.5,8.46,13,16.92,19.49,25.38,7.18,9.34,14.35,18.69,21.53,28.03.21.27.28.57.15.68-.12.1-.37.05-.65-.24l-47.03-48.21c-3.76-3.85-5.33-8.75-3.36-10.45Z" fill="#f08126"/>
    </g>
  </g>
  <g id="j" data-name="&amp;lt;径向重复&amp;gt;">
    <g id="k" data-name="&amp;lt;径向重复&amp;gt;">
      <path d="M95.81,41.17c2.37-1.08,6.17,2.39,8.11,7.4,3.85,9.95,7.7,19.9,11.55,29.84,4.25,10.99,8.51,21.97,12.76,32.96.13.32.1.62-.05.69-.14.06-.36-.06-.55-.42l-31.54-59.5c-2.52-4.75-2.65-9.9-.28-10.98Z" fill="#f08126"/>
    </g>
  </g>
  <g id="l" data-name="&amp;lt;径向重复&amp;gt;">
    <g id="m" data-name="&amp;lt;径向重复&amp;gt;">
      <path d="M126,32.31c2.58-.37,5.25,4.03,5.7,9.39.89,10.63,1.79,21.26,2.68,31.89.99,11.74,1.97,23.48,2.96,35.22.03.35-.07.63-.24.65-.15.02-.33-.16-.41-.56l-13.5-65.98c-1.08-5.27.24-10.24,2.82-10.61Z" fill="#f08126"/>
    </g>
  </g>
  <g id="n" data-name="&amp;lt;径向重复&amp;gt;">
    <g id="o" data-name="&amp;lt;径向重复&amp;gt;">
      <path d="M157.47,32.31c2.58.37,3.9,5.34,2.82,10.61-2.14,10.45-4.28,20.9-6.41,31.35-2.36,11.54-4.72,23.08-7.08,34.63-.07.34-.25.58-.41.56-.15-.02-.28-.24-.24-.65l5.64-67.11c.45-5.36,3.12-9.76,5.7-9.39Z" fill="#f08126"/>
    </g>
  </g>
  <g id="p" data-name="&amp;lt;径向重复&amp;gt;">
    <g id="q" data-name="&amp;lt;径向重复&amp;gt;">
      <path d="M187.66,41.17c2.37,1.08,2.24,6.23-.28,10.98-5,9.43-9.99,18.85-14.99,28.28-5.52,10.41-11.04,20.82-16.55,31.23-.16.31-.4.49-.55.42-.14-.06-.2-.31-.05-.69l24.32-62.8c1.94-5.02,5.74-8.48,8.11-7.4Z" fill="#f08126"/>
    </g>
  </g>
  <g id="r" data-name="&amp;lt;径向重复&amp;gt;">
    <g id="s" data-name="&amp;lt;径向重复&amp;gt;">
      <path d="M214.13,58.18c1.97,1.71.39,6.6-3.36,10.45-7.45,7.64-14.9,15.27-22.35,22.91-8.23,8.43-16.45,16.87-24.68,25.3-.24.25-.52.35-.65.24-.12-.1-.1-.35.15-.68l41.02-53.41c3.28-4.27,7.9-6.52,9.87-4.82Z" fill="#f08126"/>
    </g>
  </g>
  <g id="t" data-name="&amp;lt;径向重复&amp;gt;">
    <g id="u" data-name="&amp;lt;径向重复&amp;gt;">
      <path d="M234.73,81.96c1.41,2.19-1.48,6.45-6.17,9.08-9.3,5.23-18.6,10.46-27.9,15.68-10.27,5.77-20.54,11.55-30.81,17.32-.3.17-.6.19-.69.05-.08-.13,0-.37.33-.61l54.41-39.69c4.34-3.17,9.42-4.03,10.83-1.84Z" fill="#f08126"/>
    </g>
  </g>
  <g id="v" data-name="&amp;lt;径向重复&amp;gt;">
    <g id="w" data-name="&amp;lt;径向重复&amp;gt;">
      <path d="M247.81,110.59c.73,2.5-3.24,5.77-8.48,6.98-10.39,2.4-20.79,4.79-31.18,7.19-11.48,2.65-22.96,5.29-34.44,7.94-.34.08-.63.01-.68-.15-.04-.15.11-.35.49-.49l63.39-22.75c5.06-1.82,10.17-1.22,10.91,1.28Z" fill="#f08126"/>
    </g>
  </g>
  <g id="x" data-name="&amp;lt;径向重复&amp;gt;">
    <g id="y" data-name="&amp;lt;径向重复&amp;gt;">
      <path d="M252.28,141.73c0,2.6-4.73,4.62-10.1,4.3-10.65-.63-21.3-1.26-31.95-1.89-11.76-.69-23.52-1.39-35.28-2.08-.35-.02-.61-.16-.61-.33,0-.15.2-.31.61-.33l67.23-3.97c5.37-.32,10.1,1.7,10.1,4.3Z" fill="#f08126"/>
    </g>
  </g>
  <g id="z" data-name="&amp;lt;径向重复&amp;gt;">
    <g id="aa" data-name="&amp;lt;径向重复&amp;gt;">
      <path d="M247.81,172.88c-.73,2.5-5.84,3.1-10.91,1.28-10.04-3.6-20.08-7.21-30.12-10.81-11.09-3.98-22.18-7.96-33.27-11.94-.33-.12-.54-.33-.49-.49.04-.15.28-.24.68-.15l65.63,15.13c5.24,1.21,9.21,4.48,8.48,6.98Z" fill="#f08126"/>
    </g>
  </g>
  <g id="ab" data-name="&amp;lt;径向重复&amp;gt;">
    <g id="ac" data-name="&amp;lt;径向重复&amp;gt;">
      <path d="M234.73,201.5c-1.41,2.19-6.48,1.33-10.83-1.84-8.62-6.29-17.24-12.57-25.86-18.86-9.52-6.94-19.04-13.89-28.56-20.83-.28-.2-.42-.47-.33-.61.08-.13.34-.15.69.05l58.71,33.01c4.69,2.64,7.58,6.89,6.17,9.08Z" fill="#f08126"/>
    </g>
  </g>
  <g id="ad" data-name="&amp;lt;径向重复&amp;gt;">
    <g id="ae" data-name="&amp;lt;径向重复&amp;gt;">
      <path d="M214.13,225.28c-1.97,1.71-6.59-.55-9.87-4.82-6.5-8.46-13-16.92-19.49-25.38-7.18-9.34-14.35-18.69-21.53-28.03-.21-.27-.28-.57-.15-.68.12-.1.37-.05.65.24l47.03,48.21c3.76,3.85,5.33,8.75,3.36,10.45Z" fill="#f08126"/>
    </g>
  </g>
  <g id="af" data-name="&amp;lt;径向重复&amp;gt;">
    <g id="ag" data-name="&amp;lt;径向重复&amp;gt;">
      <path d="M187.66,242.29c-2.37,1.08-6.17-2.39-8.11-7.4-3.85-9.95-7.7-19.9-11.55-29.84-4.25-10.99-8.51-21.97-12.76-32.96-.13-.32-.1-.62.05-.69.14-.06.36.06.55.42l31.54,59.5c2.52,4.75,2.65,9.9.28,10.98Z" fill="#f08126"/>
    </g>
  </g>
  <g id="ah" data-name="&amp;lt;径向重复&amp;gt;">
    <g id="ai" data-name="&amp;lt;径向重复&amp;gt;">
      <path d="M157.47,251.16c-2.58.37-5.25-4.03-5.7-9.39-.89-10.63-1.79-21.26-2.68-31.89-.99-11.74-1.97-23.48-2.96-35.22-.03-.35.07-.63.24-.65.15-.02.33.16.41.56l13.5,65.98c1.08,5.27-.24,10.24-2.82,10.61Z" fill="#f08126"/>
    </g>
  </g>
  <g id="aj" data-name="&amp;lt;径向重复&amp;gt;">
    <g id="ak" data-name="&amp;lt;径向重复&amp;gt;">
      <path d="M126,251.16c-2.58-.37-3.9-5.34-2.82-10.61,2.14-10.45,4.28-20.9,6.41-31.35,2.36-11.54,4.72-23.08,7.08-34.63.07-.34.25-.58.41-.56.15.02.28.24.24.65l-5.64,67.11c-.45,5.36-3.12,9.76-5.7,9.39Z" fill="#f08126"/>
    </g>
  </g>
  <g id="al" data-name="&amp;lt;径向重复&amp;gt;">
    <g id="am" data-name="&amp;lt;径向重复&amp;gt;">
      <path d="M95.81,242.29c-2.37-1.08-2.24-6.23.28-10.98,5-9.43,9.99-18.85,14.99-28.28,5.52-10.41,11.04-20.82,16.55-31.23.16-.31.4-.49.55-.42.14.06.2.31.05.69l-24.32,62.8c-1.94,5.02-5.74,8.48-8.11,7.4Z" fill="#f08126"/>
    </g>
  </g>
  <g id="an" data-name="&amp;lt;径向重复&amp;gt;">
    <g id="ao" data-name="&amp;lt;径向重复&amp;gt;">
      <path d="M69.34,225.28c-1.97-1.71-.39-6.6,3.36-10.45,7.45-7.64,14.9-15.27,22.35-22.91,8.23-8.43,16.45-16.87,24.68-25.3.24-.25.52-.35.65-.24.12.1.1.35-.15.68l-41.02,53.41c-3.28,4.27-7.9,6.52-9.87,4.82Z" fill="#f08126"/>
    </g>
  </g>
  <g id="ap" data-name="&amp;lt;径向重复&amp;gt;">
    <g id="aq" data-name="&amp;lt;径向重复&amp;gt;">
      <path d="M48.73,201.5c-1.41-2.19,1.48-6.45,6.17-9.08,9.3-5.23,18.6-10.46,27.9-15.68,10.27-5.77,20.54-11.55,30.81-17.32.3-.17.6-.19.69-.05.08.13,0,.37-.33.61l-54.41,39.69c-4.34,3.17-9.42,4.03-10.83,1.84Z" fill="#f08126"/>
    </g>
  </g>
  <g id="ar" data-name="&amp;lt;径向重复&amp;gt;">
    <g id="as" data-name="&amp;lt;径向重复&amp;gt;">
      <path d="M35.66,172.88c-.73-2.5,3.24-5.77,8.48-6.98,10.39-2.4,20.79-4.79,31.18-7.19,11.48-2.65,22.96-5.29,34.44-7.94.34-.08.63-.01.68.15.04.15-.11.35-.49.49l-63.39,22.75c-5.06,1.82-10.17,1.22-10.91-1.28Z" fill="#f08126"/>
    </g>
  </g>
</svg>